<svg width="1440" height="273" viewBox="0 0 1440 273" fill="none" xmlns="http://www.w3.org/2000/svg">
<g clip-path="url(#clip0_22_6)">
<rect width="1440" height="273" fill="white"/>
<path d="M0 49L26.7 81C53.3 113 107 177 160 214.3C213.3 252 267 262 320 241C373.3 220 427 166 480 166.3C533.3 166 587 220 640 203.7C693.3 188 747 102 800 86.3C853.3 70 907 124 960 118.3C1013.3 113 1067 49 1120 65C1173.3 81 1227 177 1280 182.3C1333.3 188 1387 102 1413 59.7L1440 17V273H1413.3C1386.7 273 1333 273 1280 273C1226.7 273 1173 273 1120 273C1066.7 273 1013 273 960 273C906.7 273 853 273 800 273C746.7 273 693 273 640 273C586.7 273 533 273 480 273C426.7 273 373 273 320 273C266.7 273 213 273 160 273C106.7 273 53 273 27 273H0V49Z" fill="#FF0000" fill-opacity="0.0588235"/>
</g>
<defs>
<clipPath id="clip0_22_6">
<rect width="1440" height="273" fill="white"/>
</clipPath>
</defs>
</svg>
