<?xml version="1.0" standalone="no"?>
<!DOCTYPE svg PUBLIC "-//W3C//DTD SVG 20010904//EN"
 "http://www.w3.org/TR/2001/REC-SVG-20010904/DTD/svg10.dtd">
<svg version="1.0" xmlns="http://www.w3.org/2000/svg"
 width="3149.000000pt" height="2434.000000pt" viewBox="0 0 3149.000000 2434.000000"
 preserveAspectRatio="xMidYMid meet">

<g transform="translate(0.000000,2434.000000) scale(0.100000,-0.100000)"
fill="#000000" stroke="none">
<path d="M18895 22618 c-17 -20 -20 -45 -26 -193 -6 -168 -33 -405 -49 -436
-5 -9 -12 -45 -16 -80 -4 -35 -9 -68 -13 -74 -6 -10 -26 -97 -37 -160 -3 -16
-9 -39 -14 -50 -5 -11 -16 -56 -25 -100 -10 -44 -28 -115 -41 -157 -13 -42
-24 -86 -24 -97 0 -11 -4 -22 -9 -25 -5 -4 -12 -25 -16 -48 -4 -23 -11 -49
-16 -58 -4 -8 -15 -44 -23 -80 -8 -36 -22 -90 -30 -120 -8 -30 -20 -75 -27
-100 -6 -25 -15 -53 -20 -62 -5 -9 -12 -35 -15 -58 -4 -22 -11 -43 -15 -46 -5
-3 -9 -21 -9 -40 0 -19 -4 -34 -10 -34 -5 0 -10 -10 -10 -22 0 -13 -14 -75
-31 -138 -17 -63 -35 -133 -41 -155 -5 -22 -13 -47 -18 -56 -5 -9 -12 -38 -15
-65 -4 -27 -11 -53 -15 -59 -4 -5 -16 -48 -25 -95 -26 -127 -41 -193 -48 -210
-12 -28 -53 -316 -69 -485 -23 -235 -11 -688 26 -1030 14 -131 31 -224 59
-325 9 -30 23 -84 32 -119 8 -36 19 -70 24 -75 5 -6 12 -27 16 -46 4 -19 11
-41 16 -50 4 -8 26 -62 49 -120 23 -58 47 -118 55 -135 7 -16 25 -57 40 -90
39 -88 93 -203 122 -260 14 -27 49 -95 76 -150 28 -55 54 -102 57 -105 3 -3
22 -39 43 -80 21 -41 49 -94 62 -117 14 -24 21 -43 17 -43 -4 0 -2 -4 3 -8 14
-9 75 -103 75 -114 0 -5 4 -7 9 -4 5 3 12 -9 15 -28 7 -35 37 -71 50 -59 4 5
6 4 4 -2 -5 -17 24 -75 35 -68 5 3 7 2 4 -4 -8 -12 37 -76 46 -66 4 3 7 -1 7
-11 0 -17 45 -66 61 -66 15 0 81 119 92 165 3 11 19 65 36 120 17 55 31 112
31 127 0 15 4 29 9 33 5 3 13 31 17 63 3 31 9 62 13 67 7 11 19 98 49 355 22
183 40 295 52 325 5 11 12 31 16 45 17 62 64 65 88 5 33 -80 62 -362 77 -750
12 -315 5 -1267 -10 -1401 -5 -43 -13 -185 -16 -314 -4 -129 -11 -240 -16
-245 -4 -6 -11 -83 -14 -170 -3 -88 -10 -176 -15 -195 -5 -19 -14 -87 -19
-150 -6 -63 -16 -158 -21 -210 -5 -52 -12 -128 -15 -169 -3 -40 -8 -78 -12
-85 -6 -10 -27 -140 -37 -235 -6 -54 -36 -213 -48 -253 -6 -20 -8 -46 -5 -57
3 -12 1 -19 -4 -15 -5 3 -9 -15 -9 -39 0 -24 -3 -47 -7 -51 -4 -3 -8 -14 -9
-24 -2 -9 -6 -35 -9 -57 -4 -22 -9 -53 -12 -70 -2 -16 -6 -39 -9 -50 -7 -32
-33 -149 -50 -222 -8 -38 -20 -88 -25 -113 -5 -25 -11 -52 -13 -60 -2 -8 -6
-22 -9 -30 -3 -8 -10 -42 -17 -75 -6 -33 -13 -67 -15 -75 -21 -88 -29 -118
-36 -132 -5 -10 -9 -31 -9 -47 0 -17 -4 -33 -10 -36 -5 -3 -12 -28 -16 -55 -4
-28 -10 -50 -14 -50 -5 0 -11 -19 -15 -42 -6 -40 -17 -84 -51 -203 -39 -134
-57 -191 -65 -207 -5 -10 -9 -30 -9 -46 0 -15 -5 -33 -10 -38 -6 -6 -19 -44
-30 -85 -10 -41 -26 -99 -35 -129 -9 -30 -19 -65 -22 -77 -3 -13 -9 -23 -13
-23 -4 0 -10 -19 -14 -41 -4 -23 -13 -51 -21 -62 -18 -26 -19 -41 -2 -31 9 6
9 4 1 -7 -6 -8 -21 -45 -33 -84 -13 -38 -26 -79 -31 -90 -5 -11 -18 -54 -31
-95 -12 -41 -25 -79 -30 -84 -5 -6 -9 -20 -9 -32 0 -13 -4 -25 -9 -28 -5 -4
-12 -24 -16 -46 -4 -22 -11 -42 -16 -46 -5 -3 -9 -18 -9 -33 0 -15 -4 -31 -9
-37 -4 -5 -17 -31 -27 -59 -10 -27 -24 -61 -31 -75 -7 -14 -13 -34 -13 -46 0
-11 -4 -24 -9 -30 -4 -5 -21 -52 -37 -104 -15 -52 -34 -104 -41 -115 -7 -11
-13 -30 -13 -42 0 -13 -4 -23 -9 -23 -5 0 -12 -16 -15 -35 -4 -19 -11 -35 -16
-35 -6 0 -10 -11 -10 -24 0 -14 -4 -27 -9 -30 -4 -3 -11 -19 -14 -36 -4 -16
-16 -50 -27 -74 -11 -25 -20 -50 -20 -56 0 -5 -4 -18 -10 -28 -20 -37 -50
-112 -50 -126 0 -9 -4 -16 -10 -16 -5 0 -14 -19 -21 -42 -6 -24 -16 -49 -21
-55 -6 -7 -8 -13 -4 -13 3 0 -3 -15 -13 -33 -10 -18 -22 -48 -26 -65 -3 -18
-11 -32 -16 -32 -5 0 -9 -9 -9 -19 0 -11 -4 -22 -9 -25 -5 -3 -16 -29 -25 -57
-9 -28 -35 -90 -57 -137 -22 -48 -46 -100 -54 -117 -37 -82 -60 -132 -72 -157
-7 -14 -13 -33 -13 -41 0 -9 -4 -17 -9 -19 -9 -3 -55 -99 -53 -110 1 -5 -3 -8
-8 -8 -6 0 -10 -6 -10 -13 0 -7 -11 -37 -25 -65 -14 -29 -25 -55 -25 -58 0 -3
-9 -18 -19 -33 -11 -15 -23 -39 -26 -54 -4 -15 -12 -27 -18 -27 -6 0 -8 -3 -5
-6 4 -3 -14 -44 -38 -91 -24 -47 -44 -92 -44 -100 0 -7 -4 -13 -8 -13 -7 0
-31 -50 -37 -78 -2 -8 -10 -21 -18 -30 -8 -10 -18 -28 -22 -42 -4 -14 -19 -45
-34 -70 -14 -25 -35 -63 -46 -85 -11 -22 -22 -42 -26 -45 -3 -3 -16 -30 -28
-60 -13 -30 -31 -66 -40 -80 -9 -14 -30 -53 -46 -87 -17 -35 -33 -63 -37 -63
-5 0 -8 -6 -8 -13 0 -12 -54 -121 -103 -207 -14 -25 -38 -70 -54 -100 -15 -30
-34 -61 -40 -68 -7 -7 -13 -18 -13 -23 0 -6 -16 -34 -35 -64 -19 -30 -32 -55
-28 -55 3 0 -1 -8 -9 -17 -8 -10 -31 -47 -52 -83 -45 -80 -59 -104 -67 -110
-3 -3 -12 -20 -20 -37 -8 -18 -17 -33 -20 -33 -4 0 -9 -8 -12 -17 -4 -10 -17
-36 -31 -58 -14 -22 -31 -51 -39 -65 -44 -79 -60 -107 -73 -121 -8 -8 -14 -19
-14 -22 0 -4 -13 -26 -30 -49 -16 -22 -30 -47 -30 -55 0 -7 -4 -13 -9 -13 -5
0 -16 -18 -25 -40 -9 -22 -20 -40 -25 -40 -5 0 -11 -9 -14 -20 -8 -31 -9 -33
-29 -54 -10 -11 -18 -23 -18 -27 0 -4 -6 -14 -13 -21 -7 -7 -24 -31 -37 -53
-33 -56 -113 -179 -120 -185 -3 -3 -6 -10 -7 -16 -1 -6 -36 -63 -78 -125 -41
-63 -76 -118 -76 -124 -1 -5 -12 -23 -26 -39 -13 -16 -22 -35 -19 -43 3 -8 2
-12 -3 -8 -11 6 -53 -49 -44 -59 3 -3 1 -6 -5 -6 -7 0 -12 -6 -12 -14 0 -8 -3
-16 -7 -18 -13 -5 -58 -71 -77 -110 -9 -21 -21 -38 -26 -38 -6 0 -10 -7 -10
-16 0 -8 -4 -12 -10 -9 -5 3 -10 1 -10 -6 0 -11 -75 -136 -90 -149 -12 -11
-44 -66 -46 -79 -2 -8 -10 -18 -18 -23 -9 -5 -16 -15 -16 -23 0 -8 -6 -18 -13
-22 -18 -11 -92 -123 -82 -123 3 0 -3 -9 -13 -19 -32 -36 -43 -51 -37 -51 4 0
-1 -8 -10 -17 -10 -9 -22 -29 -27 -45 -6 -15 -14 -26 -18 -23 -4 3 -20 -19
-35 -48 -15 -28 -40 -68 -55 -87 -36 -46 -150 -217 -150 -224 0 -3 -9 -15 -20
-26 -12 -12 -18 -26 -14 -32 4 -6 3 -8 -3 -5 -5 3 -29 -27 -53 -66 -24 -40
-54 -85 -67 -100 -13 -16 -23 -38 -23 -50 0 -15 -3 -18 -8 -9 -6 8 -15 -1 -31
-30 -23 -43 -83 -133 -133 -199 -16 -20 -28 -39 -28 -43 0 -4 -6 -14 -12 -21
-25 -27 -34 -40 -53 -72 -11 -18 -22 -33 -26 -33 -4 0 -10 -8 -13 -17 -10 -27
-70 -120 -86 -133 -4 -3 -15 -21 -26 -40 -16 -30 -32 -53 -72 -105 -4 -5 -19
-28 -32 -50 -13 -22 -27 -42 -30 -45 -9 -8 -68 -97 -84 -128 -8 -15 -23 -38
-35 -52 -34 -41 -36 -43 -64 -92 -15 -26 -33 -53 -40 -60 -6 -7 -21 -30 -32
-51 -11 -20 -23 -37 -27 -37 -5 0 -8 -6 -8 -14 0 -8 -4 -16 -8 -18 -4 -1 -27
-34 -51 -73 -25 -38 -50 -76 -58 -83 -7 -7 -13 -20 -13 -28 0 -8 -4 -14 -10
-14 -5 0 -10 -6 -10 -13 0 -7 -7 -22 -15 -32 -30 -39 -65 -96 -65 -105 0 -6
-4 -10 -10 -10 -5 0 -10 -5 -10 -12 0 -6 -6 -19 -14 -27 -7 -9 -28 -43 -46
-76 -17 -33 -35 -64 -40 -70 -8 -11 -72 -130 -139 -259 -23 -44 -41 -88 -41
-98 0 -10 -4 -18 -10 -18 -5 0 -10 -5 -10 -11 0 -6 -6 -25 -14 -42 -7 -18 -26
-72 -41 -122 -15 -49 -31 -97 -35 -105 -4 -9 -11 -40 -15 -70 -4 -30 -11 -60
-15 -65 -5 -6 -13 -64 -20 -130 -22 -237 7 -359 109 -459 25 -26 64 -55 86
-66 54 -28 222 -49 430 -55 94 -2 195 -9 225 -15 30 -6 154 -11 275 -11 121
-1 267 -3 325 -5 58 -2 701 -8 1430 -13 1216 -8 1942 -4 2268 15 110 6 122 9
122 25 0 11 -4 27 -10 37 -5 9 -14 40 -20 67 -27 117 -38 163 -54 208 -9 26
-16 54 -16 62 0 9 -4 23 -10 33 -10 18 -48 145 -74 249 -9 35 -16 81 -16 102
0 22 -4 43 -10 46 -5 3 -10 38 -10 76 0 39 -5 79 -10 89 -19 36 -42 997 -27
1155 4 39 9 148 12 244 3 96 10 182 16 192 5 10 9 40 9 68 0 27 5 53 10 56 6
3 10 21 10 39 0 18 6 52 14 77 7 24 19 64 26 89 7 25 19 59 26 77 8 17 14 38
14 47 0 9 4 16 9 16 5 0 11 19 15 42 4 23 11 47 15 53 5 5 16 36 25 67 9 31
21 60 26 63 6 3 10 17 10 31 0 13 4 24 10 24 5 0 12 16 16 35 3 19 10 35 15
35 5 0 9 7 9 16 0 9 6 28 14 42 7 15 18 38 24 52 16 42 126 265 132 270 3 3
21 34 38 70 18 36 44 83 58 105 14 22 30 52 37 68 6 15 15 27 19 27 4 0 8 4 8
9 0 15 87 151 92 145 3 -3 9 8 13 23 3 15 10 30 13 33 15 11 55 75 55 87 0 7
6 13 12 13 12 0 65 75 94 133 8 15 20 27 28 27 7 0 13 5 13 11 0 11 53 82 87
117 12 13 17 27 14 44 0 4 5 5 12 2 7 -2 21 11 31 31 11 19 23 35 28 35 5 0 6
5 2 12 -4 7 -3 8 4 4 6 -4 28 16 51 48 22 30 51 62 63 70 12 9 19 16 14 16 -5
0 1 9 14 20 13 11 21 20 18 20 -3 0 78 84 181 188 102 103 185 190 184 193 -1
4 4 6 11 5 7 0 38 22 68 49 90 81 157 137 219 184 33 24 59 48 59 52 0 5 7 9
15 9 7 0 18 6 22 13 4 7 42 37 83 67 89 64 97 70 117 92 9 9 20 15 25 12 4 -3
8 0 8 6 0 5 16 18 35 27 19 9 35 20 35 25 0 4 7 8 15 8 7 0 18 6 22 13 4 7 21
21 38 31 16 11 34 23 40 28 5 5 39 27 74 51 36 23 74 49 86 57 12 8 43 29 69
45 27 17 54 36 61 43 8 6 18 12 23 12 5 0 25 12 45 28 52 39 123 82 136 82 6
0 11 4 11 9 0 5 20 20 45 32 25 12 53 30 63 38 19 17 50 36 95 59 15 7 27 18
27 23 0 5 5 9 10 9 6 0 23 8 38 18 109 73 155 102 161 102 4 0 19 9 32 20 61
50 165 120 179 120 7 0 10 6 7 13 -3 7 3 13 14 14 10 1 24 7 31 13 7 6 51 38
98 70 47 32 92 65 100 72 9 7 35 26 58 42 23 16 42 33 42 37 0 5 7 9 15 9 9 0
18 7 21 15 4 8 10 15 15 15 5 0 32 18 60 40 28 22 55 40 60 40 5 0 8 5 6 12
-1 7 3 12 8 13 6 0 31 17 55 37 25 21 68 56 95 79 227 188 458 414 607 595 45
56 90 111 98 124 8 12 30 42 48 66 17 23 32 47 32 52 0 5 7 15 16 22 8 8 21
27 29 44 8 17 23 47 34 66 41 73 81 160 81 175 0 8 3 15 8 15 15 0 77 257 94
390 16 124 16 429 0 550 -6 52 -26 160 -42 240 -17 80 -33 159 -36 175 -3 17
-9 39 -14 50 -4 11 -16 47 -26 80 -10 33 -21 65 -25 70 -4 6 -10 29 -14 52 -4
24 -10 45 -15 48 -4 3 -11 22 -14 42 -4 21 -13 56 -21 78 -7 22 -18 59 -25 83
l-11 43 -907 -1 c-499 0 -943 2 -987 5 -56 5 -99 2 -145 -8 -46 -11 -78 -13
-110 -7 -25 5 -187 12 -360 15 -567 10 -645 13 -663 20 -10 4 -21 5 -24 1 -3
-3 -12 -1 -20 5 -18 15 -17 87 3 179 9 41 21 102 28 135 7 33 15 67 18 75 3 8
13 42 21 75 52 196 90 332 97 345 4 9 11 36 15 60 4 25 11 50 15 55 5 6 13 33
19 60 5 28 16 77 25 110 47 195 59 245 68 290 6 28 14 58 19 67 5 10 9 27 9
37 0 11 5 23 10 26 6 3 10 18 10 33 0 15 14 92 31 172 17 80 37 179 45 220 28
156 36 195 42 210 5 14 24 125 37 230 4 25 10 54 15 65 8 18 13 52 39 260 5
39 12 82 16 97 4 15 8 42 10 60 2 18 8 62 14 98 6 36 11 86 11 113 0 26 4 55
9 65 5 9 17 96 26 192 9 96 26 258 37 360 11 102 24 230 29 285 5 55 13 127
18 160 5 33 10 101 10 151 1 58 5 94 14 102 16 17 22 1240 8 1567 -6 127 -16
361 -21 520 -6 160 -15 299 -20 310 -6 11 -12 79 -15 150 -3 72 -17 211 -30
310 -13 99 -29 218 -35 265 -6 47 -15 94 -20 105 -5 11 -11 38 -13 60 -10 85
-31 185 -39 185 -4 0 -8 15 -8 33 0 18 -6 57 -14 87 -8 30 -17 75 -21 100 -3
25 -13 65 -20 90 -8 25 -17 69 -20 97 -4 29 -11 55 -15 58 -5 3 -11 24 -15 48
-3 23 -10 51 -15 62 -9 23 -39 130 -73 260 -13 50 -30 106 -39 125 -8 19 -27
71 -42 115 -42 128 -63 185 -70 192 -3 3 -6 13 -6 22 -1 9 -9 34 -20 56 -11
22 -19 47 -20 56 0 8 -4 19 -8 25 -5 5 -23 45 -42 89 -18 44 -54 125 -80 180
-58 122 -147 305 -159 325 -4 8 -14 26 -21 39 -7 13 -30 58 -52 100 -22 42
-44 78 -49 79 -5 2 -9 8 -9 14 0 10 -79 149 -90 158 -3 3 -17 23 -30 45 -13
22 -26 42 -30 45 -3 3 -18 25 -35 50 -35 53 -188 252 -213 276 -9 10 -26 30
-37 45 -11 14 -59 68 -105 119 -47 51 -95 105 -108 119 -42 48 -386 403 -436
450 -27 25 -72 69 -101 96 -69 67 -142 126 -182 147 -40 22 -35 22 -58 -4z"/>
<path d="M24699 10955 c-3 -2 -115 -9 -250 -14 -287 -10 -304 -14 -296 -75 4
-31 18 -52 65 -100 33 -34 78 -86 100 -117 71 -99 162 -238 162 -249 0 -5 4
-10 8 -10 5 0 19 -19 32 -42 13 -24 27 -45 30 -48 4 -3 19 -26 33 -52 14 -25
36 -63 50 -85 13 -21 27 -48 31 -60 4 -13 11 -23 15 -23 4 0 27 -39 50 -87 24
-49 54 -108 67 -133 13 -25 24 -53 24 -62 0 -10 5 -18 10 -18 6 0 10 -9 10
-20 0 -12 6 -33 13 -48 8 -15 19 -54 26 -87 7 -33 16 -69 21 -80 11 -23 27
-117 40 -227 5 -42 14 -105 20 -140 13 -82 13 -305 -1 -388 -6 -36 -14 -94
-19 -130 -14 -105 -30 -184 -40 -205 -5 -11 -17 -47 -26 -80 -9 -33 -23 -82
-32 -110 -20 -66 -27 -154 -13 -168 6 -6 11 -20 11 -30 0 -22 74 -179 105
-222 12 -16 37 -57 56 -90 41 -72 40 -71 106 -177 29 -47 56 -93 60 -104 4
-10 12 -24 17 -31 31 -35 36 -43 36 -57 0 -8 4 -18 10 -21 11 -7 65 -122 101
-215 17 -43 16 -129 -1 -172 -44 -110 -117 -178 -230 -214 -30 -10 -61 -24
-68 -31 -7 -7 -17 -13 -21 -13 -19 0 -41 -81 -41 -151 -1 -41 -7 -101 -15
-134 -8 -33 -15 -77 -15 -97 0 -20 -4 -39 -9 -42 -5 -3 -12 -34 -16 -68 -4
-35 -11 -67 -15 -73 -4 -5 -13 -39 -20 -75 -14 -75 -39 -168 -50 -190 -4 -9
-11 -36 -15 -60 -4 -24 -11 -51 -15 -60 -14 -28 -90 -315 -107 -400 -3 -14
-11 -39 -19 -57 -8 -17 -14 -42 -14 -56 0 -14 -4 -28 -9 -31 -5 -3 -12 -27
-16 -53 -4 -27 -10 -52 -14 -58 -4 -5 -13 -30 -20 -54 -24 -84 -92 -164 -149
-177 -15 -3 -36 -10 -48 -15 -32 -16 -512 13 -689 41 -38 6 -122 13 -185 16
-63 2 -144 9 -180 15 -63 10 -175 20 -420 39 -63 5 -182 14 -265 20 -183 14
-637 9 -656 -7 -8 -6 -32 -13 -54 -16 -22 -3 -67 -12 -100 -22 -33 -9 -78 -20
-100 -24 -22 -4 -49 -12 -60 -18 -11 -5 -42 -15 -70 -22 -48 -11 -100 -31
-137 -51 -10 -6 -23 -10 -29 -10 -12 0 -176 -78 -193 -91 -6 -5 -22 -17 -35
-28 -24 -18 -24 -18 120 -24 500 -22 3756 -12 4168 13 131 8 168 13 183 27 18
16 19 37 13 642 -3 345 -7 1743 -10 3109 l-6 2482 -498 0 c-274 0 -500 -2
-502 -5z"/>
</g>
</svg>
